G04*
G04 #@! TF.GenerationSoftware,Altium Limited,Altium Designer,20.0.13 (296)*
G04*
G04 Layer_Physical_Order=2*
G04 Layer_Color=16711680*
%FSLAX25Y25*%
%MOIN*%
G70*
G01*
G75*
%ADD13R,0.03150X0.03150*%
%ADD14R,0.05118X0.02756*%
%ADD20C,0.01968*%
%ADD21R,0.07874X0.06299*%
%ADD22O,0.07874X0.06299*%
%ADD23C,0.02362*%
G36*
X62992Y52335D02*
X60264Y49606D01*
X53937D01*
Y40945D01*
X62992D01*
Y38719D01*
X62492Y38473D01*
X61935Y38900D01*
X60926Y39318D01*
X59842Y39461D01*
X59555D01*
Y35276D01*
X59055D01*
Y34776D01*
X54148D01*
X54225Y34192D01*
X54643Y33183D01*
X55308Y32316D01*
X56175Y31651D01*
X56847Y31372D01*
Y23622D01*
X57015Y22777D01*
X57494Y22061D01*
X62992Y16563D01*
Y1969D01*
X1969D01*
Y76772D01*
X62992D01*
Y52335D01*
D02*
G37*
%LPC*%
G36*
X58555Y39461D02*
X58268D01*
X57184Y39318D01*
X56175Y38900D01*
X55308Y38235D01*
X54643Y37368D01*
X54225Y36359D01*
X54148Y35776D01*
X58555D01*
Y39461D01*
D02*
G37*
G36*
X37213Y16593D02*
Y14968D01*
X38837D01*
X38767Y15319D01*
X38285Y16041D01*
X37564Y16523D01*
X37213Y16593D01*
D02*
G37*
G36*
X36213D02*
X35862Y16523D01*
X35140Y16041D01*
X34658Y15319D01*
X34588Y14968D01*
X36213D01*
Y16593D01*
D02*
G37*
G36*
X38837Y13969D02*
X37213D01*
Y12344D01*
X37564Y12414D01*
X38285Y12896D01*
X38767Y13618D01*
X38837Y13969D01*
D02*
G37*
G36*
X36213D02*
X34588D01*
X34658Y13618D01*
X35140Y12896D01*
X35862Y12414D01*
X36213Y12344D01*
Y13969D01*
D02*
G37*
%LPD*%
D13*
X70866Y23622D02*
D03*
Y17126D02*
D03*
D14*
Y55118D02*
D03*
Y47638D02*
D03*
D20*
X65551Y17126D02*
X70866D01*
X59055Y23622D02*
X65551Y17126D01*
X59055Y23622D02*
Y35276D01*
X70866Y23622D02*
Y47638D01*
X68898Y55118D02*
X70866D01*
X59055Y45276D02*
X68898Y55118D01*
D21*
X59055Y45276D02*
D03*
D22*
Y35276D02*
D03*
D23*
X36713Y14469D02*
D03*
M02*
